
<svg className="arrow" width="11px" height="26px" viewBox="0 0 11 26" version="1.1" xmlns="http://www.w3.org/2000/svg" xmlns:xlink="http://www.w3.org/1999/xlink">
    <defs>
        <path d="M13.8076172,18.28125 L31.1923828,18.28125 C32.1328125,18.28125 32.6074219,19.4238281 31.9394532,20.0830078 L23.2470703,28.7226563 C22.8339844,29.1357422 22.1748047,29.1357422 21.7617187,28.7226563 L13.0693359,20.0830078 C12.3925781,19.4238281 12.8671875,18.28125 13.8076172,18.28125 Z M42.1875001,7.03124994 L42.1875001,37.9687501 C42.1875001,40.2978516 40.2978516,42.1875001 37.9687501,42.1875001 L7.03124994,42.1875001 C4.70214836,42.1875001 2.81249992,40.2978516 2.81249992,37.9687501 L2.81249992,7.03124994 C2.81249992,4.70214836 4.70214836,2.81249992 7.03124994,2.81249992 L37.9687501,2.81249992 C40.2978516,2.81249992 42.1875001,4.70214836 42.1875001,7.03124994 Z M37.9687501,37.4414063 L37.9687501,7.55859369 C37.9687501,7.26855462 37.7314454,7.03124994 37.4414063,7.03124994 L7.55859369,7.03124994 C7.26855462,7.03124994 7.03124994,7.26855462 7.03124994,7.55859369 L7.03124994,37.4414063 C7.03124994,37.7314454 7.26855462,37.9687501 7.55859369,37.9687501 L37.4414063,37.9687501 C37.7314454,37.9687501 37.9687501,37.7314454 37.9687501,37.4414063 Z" id="path-1"></path>
    </defs>
    <g id="Home-Copy" stroke="none" stroke-width="1" fill="none" fill-rule="evenodd" opacity="0.194359189">
        <g id="Page" transform="translate(-145.000000, -563.000000)">
            <g id="caret-square-down" transform="translate(129.000000, 556.000000)">
                <g transform="translate(22.500000, 22.500000) rotate(90.000000) translate(-22.500000, -22.500000) ">
                    <mask id="mask-2" fill="white">
                        <use xlink:href="#path-1"></use>
                    </mask>
                    <g fill-rule="nonzero"></g>
                    <path d="M12.1030233,11.4755782 C15.9232669,7.65533461 19.5889958,10.8682036 23.458283,10.8277002 C25.9429472,10.8016909 29.7523737,10.8016909 34.8865624,10.8277002 L30.0428043,34.2470623 L18.9007485,34.2470623 C6.86893168,26.5660729 4.60302326,18.9755782 12.1030233,11.4755782 Z" id="🎨-color" fill="#000000" fill-rule="evenodd" mask="url(#mask-2)"></path>
                </g>
            </g>
        </g>
    </g>
</svg>
